<svg xmlns="http://www.w3.org/2000/svg" width="312.156" height="110.219" viewBox="0 0 312.156 110.219">
  <defs>
    <style>
      .cls-1 {
        fill: #fff;
      }

      .cls-1, .cls-2 {
        fill-rule: evenodd;
      }

      .cls-2 {
        fill: #f22;
      }
    </style>
  </defs>
  <path id="Pla_y" data-name="Pla   y" class="cls-1" d="M142.82,102.087a23.837,23.837,0,0,0-3.135-12.21,21.466,21.466,0,0,0-9.405-8.47,34.178,34.178,0,0,0-15.18-3.08H86.83v76.78h15.4v-29.48H115.1q9.459,0,15.675-3.3a21.418,21.418,0,0,0,9.13-8.69,23.918,23.918,0,0,0,2.915-11.55h0ZM114.44,113.2H102.23V90.868h12.21q12.54,0,12.54,11.219,0,5.28-3.08,8.195t-9.46,2.915h0Zm39.819-39.49v81.4h15.4v-81.4h-15.4Zm27.17,50.71a35.834,35.834,0,0,0,3.685,16.555,27.7,27.7,0,0,0,10.01,11.165,25.9,25.9,0,0,0,14.025,3.96,25.077,25.077,0,0,0,12.045-2.805,22.918,22.918,0,0,0,8.2-7.095v8.91H244.9V94.168h-15.51v8.689a24.237,24.237,0,0,0-8.2-6.93,24.845,24.845,0,0,0-11.935-2.75,26.65,26.65,0,0,0-14.135,3.85,27.005,27.005,0,0,0-10.01,11,35.258,35.258,0,0,0-3.685,16.39h0Zm47.96,0.22a19.759,19.759,0,0,1-2.2,9.625,15.52,15.52,0,0,1-5.94,6.16,15.878,15.878,0,0,1-8.03,2.145,15.072,15.072,0,0,1-7.865-2.2,16.212,16.212,0,0,1-5.94-6.325,19.743,19.743,0,0,1-2.255-9.625,19.122,19.122,0,0,1,2.255-9.515,15.843,15.843,0,0,1,21.835-6.05,15.533,15.533,0,0,1,5.94,6.16,19.764,19.764,0,0,1,2.2,9.625h0ZM382.615,94.168l-15.95,42.569-15.73-42.569h-17.27l24.42,59.4-13.2,30.36h16.39l37.73-89.759h-16.39Z" transform="translate(-86.844 -73.719)"/>
  <path class="cls-2" d="M295,92.07c13.208,0,26,7.233,30,18.93,0.034,0.1-13.056.02-13,0-2.031.735-15.031-14.192-30.884-2.038-4.47,3.427-7.506,7.744-8.116,16.038-0.592,8.055,5.884,14.9,6,15,15.768,14.126,30.972-.838,33.038-1a86.983,86.983,0,0,1,14.26.123c-1.057,3.2-3.675,6.962-6.308,9.828C313.788,155.7,295.721,183.12,295,183c-0.634-.106-18.463-27.147-24.648-33.682A33.93,33.93,0,0,1,295,92.07Zm-1,20.086A12.844,12.844,0,1,1,281.156,125,12.845,12.845,0,0,1,294,112.156Z" transform="translate(-86.844 -73.719)"/>
</svg>
